<svg xmlns="http://www.w3.org/2000/svg" version="1.1" width="512" height="512" x="0" y="0" viewBox="0 0 32 32"
    style="enable-background:new 0 0 512 512" xml:space="preserve" class=""><g transform="matrix(1.1199999999999994,0,0,1.1199999999999994,-1.9199557113647359,-1.9198456048965369)"><g data-name="Layer 2"><path fill="#64bf66" d="M23.95 25.5C23.48 23.2 19.72 22 16 22s-7.48 1.2-7.95 3.5A2.734 2.734 0 0 0 8 26c0 2.63 4.02 4 8 4s8-1.37 8-4a2.734 2.734 0 0 0-.05-.5zM16 28c-3.72 0-6-1.29-6-2a.779.779 0 0 1 .28-.5c.71-.68 2.76-1.5 5.72-1.5s5.01.82 5.72 1.5a.779.779 0 0 1 .28.5c0 .71-2.28 2-6 2z" opacity="1" data-original="#64bf66" class="hovered-path pointer-hover"></path><path
    fill="#7bd681"
    d="M22 26c0 .71-2.28 2-6 2s-6-1.29-6-2H8.21c.88 1.97 4.35 3 7.79 3s6.91-1.03 7.79-3zM24 26h-2a.779.779 0 0 0-.28-.5c-.71-.68-2.76-1.5-5.72-1.5s-5.01.82-5.72 1.5a.779.779 0 0 0-.28.5H8a2.734 2.734 0 0 1 .05-.5C8.52 23.2 12.28 22 16 22s7.48 1.2 7.95 3.5a2.734 2.734 0 0 1 .05.5z"
    opacity="1" data-original="#7bd681" class="hovered-path pointer-hover"></path><path
    fill="#d83939"
    d="M25.7 11.7a9.7 9.7 0 0 1-4.1 7.92 10.617 10.617 0 0 0-2.96 3.41L17.51 25l-.28.49a1.42 1.42 0 0 1-2.46 0l-1.29-2.26a11.348 11.348 0 0 0-3.16-3.66 9.722 9.722 0 0 1-3.93-9.2 9.591 9.591 0 0 1 3.36-6.06 9.458 9.458 0 0 1 5.15-2.25 9.7 9.7 0 0 1 10.8 9.64z"
    opacity="1" data-original="#d83939" class="hovered-path pointer-hover"></path><path
    fill="#f14f4a"
    d="M25.7 11.7a9.7 9.7 0 0 1-4.1 7.92 10.617 10.617 0 0 0-2.96 3.41L17.51 25a1.4 1.4 0 0 1-1.59-.66l-1.29-2.26a11.47 11.47 0 0 0-3.16-3.66 9.722 9.722 0 0 1-3.93-9.2 9.522 9.522 0 0 1 2.21-4.91 9.458 9.458 0 0 1 5.15-2.25 9.7 9.7 0 0 1 10.8 9.64z"
    opacity="1" data-original="#f14f4a" class="hovered-path pointer-hover"></path><circle cx="16"
    cy="11.781" r="5" fill="#e9e9ff" opacity="1" data-original="#e9e9ff"
    class="hovered-path pointer-hover"></circle></g></g></svg>